<svg width="64" height="64" viewBox="0 0 64 64" fill="none" xmlns="http://www.w3.org/2000/svg">
<circle cx="32" cy="32" r="32" fill="#30A836"/>
<path d="M51.9426 27.4296C51.8047 27.007 51.4381 26.6991 50.9967 26.6353L38.5965 24.8408L33.0508 13.6505C32.8535 13.2522 32.4461 13 32.0001 13C31.554 13 31.1466 13.2522 30.9492 13.6505L25.4033 24.8408L13.0033 26.6353C12.562 26.6991 12.1952 27.007 12.0574 27.4295C11.9195 27.8521 12.0345 28.3158 12.354 28.6259L21.3264 37.3363L19.2086 49.6357C19.1332 50.0736 19.3139 50.516 19.6748 50.7772C19.8789 50.9248 20.1207 51 20.3637 51C20.5503 51 20.7375 50.9557 20.9089 50.8659L32 45.0588L43.0906 50.8659C43.4856 51.0726 43.9639 51.0382 44.3248 50.7771C44.6856 50.516 44.8665 50.0734 44.7911 49.6356L42.6726 37.3363L51.6461 28.6258C51.9654 28.3158 52.0805 27.8521 51.9426 27.4296Z" fill="#FFF131"/>
</svg>
