<svg width="130" height="117" viewBox="0 0 130 117" fill="none" xmlns="http://www.w3.org/2000/svg">
<path d="M79.3151 0.0450439H50.8176V17.7894H79.3151V0.0450439Z" fill="#1B802C"/>
<path d="M106.46 8.06153C103.709 5.3143 100.192 3.4678 96.3143 2.83729L79.315 0C78.2779 6.07993 72.2808 11.3942 65.0663 11.3942C57.8517 11.3942 51.8997 6.12496 50.8175 0.0450392L33.7731 2.83729C29.9404 3.4678 26.3782 5.26926 23.6277 8.01649L0 31.6606L18.9382 50.576L27.8662 41.6587V107.232C27.8662 112.456 44.5048 116.69 65.0663 116.69C85.5827 116.69 102.266 112.456 102.266 107.232V41.8389L111.059 50.621L129.997 31.7057L106.46 8.06153Z" fill="url(#paint0_linear)"/>
<path d="M57.1754 9.09737C53.8386 6.98066 51.4488 3.64796 50.8175 0.0450439L46.2183 0.810655C48.9237 4.59371 52.7114 7.52109 57.1754 9.09737Z" fill="#035020"/>
<path d="M83.779 0.765629L79.315 0.0450439C78.6837 3.60292 76.4292 6.84554 73.1826 8.96225C77.5114 7.2959 81.1637 4.45862 83.779 0.765629Z" fill="#035020"/>
<path d="M87.1158 50.3058V114.843C96.2693 113.132 102.221 110.339 102.221 107.232V41.8389L111.014 50.621L129.952 31.7057L106.46 8.10658C104.791 6.44023 102.807 5.08914 100.643 4.14337C91.8503 17.9245 87.1158 33.9125 87.1158 50.3058Z" fill="#30A836"/>
<path d="M42.8364 50.3057V114.843C33.683 113.132 27.731 110.339 27.731 107.232V41.8389L18.9382 50.576L0 31.6606L23.4924 8.06153C25.1608 6.39518 27.1448 5.04409 29.3091 4.09833C38.147 17.9245 42.8364 33.9125 42.8364 50.3057Z" fill="#30A836"/>
<path d="M67.2757 1.8465H63.1274V7.47609H67.2757V1.8465Z" fill="white"/>
<path d="M90.5385 33.4575C92.4227 31.5756 92.4227 28.5245 90.5385 26.6426C88.6544 24.7607 85.5996 24.7607 83.7154 26.6426C81.8312 28.5245 81.8312 31.5756 83.7154 33.4575C85.5996 35.3394 88.6544 35.3394 90.5385 33.4575Z" fill="white"/>
<path d="M123.791 25.4368L104.82 44.3848L107.818 47.3782L126.788 28.4303L123.791 25.4368Z" fill="#FFF131"/>
<defs>
<linearGradient id="paint0_linear" x1="64.9925" y1="115.421" x2="64.9925" y2="0.254766" gradientUnits="userSpaceOnUse">
<stop stop-color="#004B1F"/>
<stop offset="1" stop-color="#30A836"/>
</linearGradient>
</defs>
</svg>
