<svg width="181" height="185" viewBox="0 0 181 185" fill="none" xmlns="http://www.w3.org/2000/svg">
<path d="M85.5 171C132.72 171 171 132.72 171 85.5C171 38.2797 132.72 0 85.5 0C38.2797 0 0 38.2797 0 85.5C0 132.72 38.2797 171 85.5 171Z" fill="black" fill-opacity="0.2"/>
<path d="M95.5 185C142.72 185 181 146.72 181 99.5C181 52.2797 142.72 14 95.5 14C48.2797 14 10 52.2797 10 99.5C10 146.72 48.2797 185 95.5 185Z" fill="white"/>
<mask id="mask0" style="mask-type:alpha" maskUnits="userSpaceOnUse" x="10" y="14" width="171" height="171">
<path d="M95.5 185C142.72 185 181 146.72 181 99.5C181 52.2797 142.72 14 95.5 14C48.2797 14 10 52.2797 10 99.5C10 146.72 48.2797 185 95.5 185Z" fill="white"/>
</mask>
<g mask="url(#mask0)">
<path d="M36.5636 148.646C26.0163 140.334 14.8446 117.565 14.3468 116.59L15.4309 116.059C15.5378 116.303 26.9581 139.524 37.2938 147.663L36.5636 148.646Z" fill="#1D1D1D"/>
<path d="M132.081 18.692V22.0426C132.081 22.0426 138.865 33.0252 140.047 45.9623L111.231 57.5654C106.345 54.4009 80.7654 47.9168 75.5996 46.6138L71.5541 24.8658C74.6972 23.2525 94.8312 12.9835 103.731 12.6733C103.731 12.6733 60.6936 4.38977 39.2214 32.1875C39.2214 32.1875 62.0317 25.4242 70.4961 25.114L74.5104 46.5828C72.5811 48.4753 57.3638 63.5841 50.7354 75.1561C43.9826 75.3423 29.2322 79.5616 23.2262 81.361C20.9856 75.001 21.5769 55.2385 20.2076 55.9831C15.6331 58.4651 5.89282 104.598 6.98199 109.934C8.07116 115.27 15.5709 118.094 15.5709 118.094C16.0377 107.98 22.1992 86.1697 23.2884 82.4468C28.9832 80.7405 43.7648 76.4591 50.4865 76.2109C51.5757 78.7549 58.7642 94.6083 70.9317 107.576C69.687 111.579 62.7785 133.978 61.3159 142.82C53.2561 144.837 34.9269 146.512 34.9269 146.512C34.5535 151.848 48.1837 177.04 48.1837 177.04C48.1837 177.04 76.1286 189.822 81.201 186.13C85.5888 182.934 91.4704 171.269 92.9952 168.198C100.059 166.212 120.94 160.256 128.813 156.067C129.902 157.495 154.02 163.079 154.02 163.079C161.893 158.456 176.114 133.854 176.114 133.854C176.768 127.742 170.108 110.927 168.552 107.111C171.975 96.9662 170.388 75.6525 169.953 70.8127C172.1 69.4477 179.693 64.3287 180.907 59.4578C182.369 53.8424 132.081 18.692 132.081 18.692ZM128.813 154.857C121.78 158.829 100.09 165.095 92.7462 167.143C82.8815 161.497 64.7079 144.961 62.374 142.851C63.8677 134.164 70.5272 112.354 71.8653 108.073C75.7241 106.987 104.945 98.6105 109.768 96.0044L137.744 121.196C137.651 128.394 129.778 149.428 128.813 154.857ZM167.494 106.925C159.932 112.261 142.226 118.931 138.491 120.327L110.235 94.8875C110.515 89.8306 111.978 63.2738 112.071 58.434C112.071 58.403 112.04 58.403 112.04 58.372L140.794 46.7999C144.093 48.9716 158.47 58.6512 168.864 70.5956C169.206 74.5356 170.949 96.9041 167.494 106.925Z" fill="#1D1D1D"/>
</g>
</svg>
