<svg width="25" height="37" viewBox="0 0 25 37" fill="none" xmlns="http://www.w3.org/2000/svg">
<path d="M6.43536 37C2.32233 23.447 11.0131 18.4984 11.0131 18.4984C10.405 25.7304 14.5148 31.3647 14.5148 31.3647C16.0263 30.9086 18.9114 28.7772 18.9114 28.7772C18.9114 31.3647 17.3891 36.9968 17.3891 36.9968C17.3891 36.9968 22.7182 32.8762 24.3958 26.0323C26.0712 19.1884 21.2045 12.3175 21.2045 12.3175C21.4978 17.1615 19.859 21.9257 16.6484 25.5655C16.809 25.38 16.9438 25.1741 17.0473 24.9509C17.6241 23.7973 18.5502 20.7991 18.0079 13.856C17.2446 4.10979 8.41371 0 8.41371 0C9.17486 5.93828 6.89248 7.30642 1.54608 18.5782C-3.80032 29.8478 6.43536 37 6.43536 37Z" fill="url(#paint0_linear)"/>
<defs>
<linearGradient id="paint0_linear" x1="12.3734" y1="0" x2="12.3734" y2="37" gradientUnits="userSpaceOnUse">
<stop stop-color="#FFF131"/>
<stop offset="1" stop-color="#EFD700"/>
</linearGradient>
</defs>
</svg>
