<svg width="130" height="117" viewBox="0 0 130 117" fill="none" xmlns="http://www.w3.org/2000/svg">
<path d="M79.315 0.0450439H50.8175V17.7894H79.315V0.0450439Z" fill="url(#paint0_linear)"/>
<path d="M106.505 8.06153C103.754 5.3143 100.237 3.46781 96.3594 2.8373L79.3601 0C78.323 6.07992 72.3259 11.3942 65.1114 11.3942C57.8968 11.3942 51.9448 6.12496 50.8626 0.0450365L33.8182 2.8373C29.9855 3.46781 26.4233 5.26927 23.6728 8.01649L0 31.6606L18.9382 50.576L27.8662 41.6587V107.232C27.8662 112.456 44.5048 116.69 65.0663 116.69C85.6278 116.69 102.266 112.456 102.266 107.232V41.8389L111.059 50.621L129.997 31.7057L106.505 8.06153Z" fill="url(#paint1_linear)"/>
<path d="M48.8787 0.360292C50.5921 7.79131 57.2205 13.3758 65.2016 13.3758C73.1827 13.3758 79.8111 7.83635 81.5246 0.405328L79.3602 0C78.3231 6.07992 72.326 11.3942 65.1114 11.3942C57.8969 11.3942 51.9449 6.12496 50.8627 0.0450365L48.8787 0.360292Z" fill="#F9C125"/>
<path d="M92.0757 26.4814L87.1608 25.2204L82.2459 26.4814C82.2459 26.4814 81.7499 33.1468 87.1608 34.8132C92.5718 33.1468 92.0757 26.4814 92.0757 26.4814Z" fill="white"/>
<path d="M123.834 25.4183L104.863 44.3663L107.86 47.3597L126.831 28.4118L123.834 25.4183Z" fill="#D4321E"/>
<path d="M67.2757 1.8465H63.1274V7.47606H67.2757V1.8465Z" fill="white"/>
<path d="M83.4183 115.428C83.5085 102.143 85.6728 70.8423 102.311 41.7938C102.311 41.7938 79.6306 66.5189 77.9172 116.059C79.811 115.924 81.6597 115.699 83.4183 115.428Z" fill="#F9C125"/>
<path d="M46.6241 115.428C46.5339 102.143 44.3695 70.8423 27.731 41.7938C27.731 41.7938 50.4117 66.5189 52.1252 116.059C50.2314 115.924 48.3826 115.699 46.6241 115.428Z" fill="#F9C125"/>
<defs>
<linearGradient id="paint0_linear" x1="65.0758" y1="19.8814" x2="65.0758" y2="2.22801" gradientUnits="userSpaceOnUse">
<stop stop-color="#202632"/>
<stop offset="0.5118" stop-color="#242A38"/>
<stop offset="1" stop-color="#262D3B"/>
</linearGradient>
<linearGradient id="paint1_linear" x1="65.0112" y1="114.213" x2="65.0112" y2="0.122325" gradientUnits="userSpaceOnUse">
<stop stop-color="#202632"/>
<stop offset="0.5118" stop-color="#242A38"/>
<stop offset="1" stop-color="#262D3B"/>
</linearGradient>
</defs>
</svg>
