<svg width="360" height="37" viewBox="0 0 360 37" fill="none" xmlns="http://www.w3.org/2000/svg">
<path fill-rule="evenodd" clip-rule="evenodd" d="M-7.60422 26.665H13.25C14.0653 26.665 14.7025 26.4238 15.1386 25.9767C15.5749 25.5294 15.9401 24.7424 15.9401 23.39C15.9401 23.1805 15.9084 23.0717 15.8871 23.0227C15.871 22.9856 15.8555 22.9675 15.8252 22.9465C15.7227 22.8756 15.435 22.77 14.7351 22.77H4.07005C1.16798 22.77 -1.07051 22.3061 -2.5937 21.1637C-4.18618 19.9694 -4.80495 18.188 -4.80495 16.055C-4.80495 14.7245 -4.55962 13.2406 -4.14509 11.5824L-4.14469 11.5808C-3.31586 8.28855 -2.12422 5.62022 -0.0155268 3.79564C2.11057 1.95599 5.01368 1.10498 8.97505 1.10498H31.2708L28.9258 10.485H8.93005C8.04065 10.485 7.56973 10.6637 7.27009 10.9174C6.95668 11.1829 6.66546 11.6692 6.43874 12.6379L6.4346 12.6556L6.42981 12.6731C6.31778 13.0839 6.28505 13.4005 6.28505 13.67C6.28505 14.034 6.37351 14.0912 6.39469 14.1049C6.3958 14.1056 6.39672 14.1062 6.39744 14.1067C6.49323 14.1756 6.77701 14.29 7.49005 14.29H18.1101C21.0089 14.29 23.2431 14.7417 24.7645 15.8556C26.3607 17.0242 26.9851 18.7735 26.9851 20.87C26.9851 22.1567 26.7392 23.6413 26.3252 25.2975L26.3248 25.2991C25.4732 28.6825 24.2484 31.4028 22.1336 33.2596C19.9985 35.1341 17.1065 36 13.2051 36H-9.89502L-7.60422 26.665ZM-6.81995 27.665H13.25C15.2751 27.665 16.9401 26.45 16.9401 23.39C16.9401 22.175 16.2201 21.77 14.7351 21.77H4.07005C-1.59995 21.77 -3.80495 19.925 -3.80495 16.055C-3.80495 14.84 -3.57995 13.445 -3.17495 11.825C-1.55495 5.38998 1.32505 2.10498 8.97505 2.10498H29.9901L28.1451 9.48498H8.93005C6.90505 9.48498 5.96005 10.295 5.46505 12.41C5.33005 12.905 5.28505 13.31 5.28505 13.67C5.28505 14.84 5.96005 15.29 7.49005 15.29H18.1101C23.7801 15.29 25.9851 17.09 25.9851 20.87C25.9851 22.04 25.7601 23.435 25.3551 25.055C23.6901 31.67 20.7201 35 13.2051 35H-8.61995L-6.81995 27.665ZM66.9696 13.8664C65.7218 18.8814 63.3032 21.9302 60.2424 23.6889C57.2259 25.4222 53.7079 25.83 50.3842 25.83H39.8266L37.3066 36H26.4247L35.1126 1.10498H56.0542C58.889 1.10498 61.7309 1.45193 63.8902 2.70205C64.9887 3.33803 65.9155 4.21062 66.5612 5.38077C67.2049 6.54737 67.5392 7.95514 67.5392 9.61998C67.5392 10.8908 67.3439 12.2761 66.9726 13.854L66.9696 13.8664ZM39.0442 24.83H50.3842C56.9092 24.83 63.6142 23.21 65.9992 13.625C66.3592 12.095 66.5392 10.79 66.5392 9.61998C66.5392 3.49998 61.6342 2.10498 56.0542 2.10498H35.8942L27.7042 35H36.5242L39.0442 24.83ZM56.3459 13.3749L56.348 13.3673C56.5019 12.7899 56.5392 12.3382 56.5392 11.915C56.5392 11.1366 56.304 10.8394 56.0893 10.6851C55.8062 10.4816 55.3108 10.35 54.5242 10.35H43.692L42.0399 16.855H52.3642C53.3013 16.855 54.0894 16.6749 54.7235 16.2137C55.3497 15.7583 55.9564 14.9332 56.344 13.3824L56.3459 13.3749ZM40.7542 17.855L42.9142 9.34998H54.5242C56.2342 9.34998 57.5392 9.88998 57.5392 11.915C57.5392 12.41 57.4942 12.95 57.3142 13.625C56.4592 17.045 54.4792 17.855 52.3642 17.855H40.7542ZM92.832 10.6496C91.9495 10.0888 90.393 9.76498 87.7377 9.76498C84.0093 9.76498 81.9724 10.3799 80.62 11.6487C79.2223 12.9599 78.3614 15.1358 77.459 18.8128C76.9153 21.0328 76.5877 22.6289 76.5877 23.885C76.5877 25.3144 76.9791 26.0478 77.7325 26.5191C78.6156 27.0716 80.1732 27.385 82.8327 27.385C86.5604 27.385 88.5987 26.7703 89.9573 25.5001C91.3618 24.187 92.2327 22.0092 93.1578 18.3317C93.6946 16.1843 93.9827 14.5748 93.9827 13.31C93.9827 11.8796 93.5903 11.1315 92.832 10.6496ZM94.1277 18.575C94.6677 16.415 94.9827 14.705 94.9827 13.31C94.9827 10.025 93.0927 8.76498 87.7377 8.76498C80.1327 8.76498 78.2877 11.24 76.4877 18.575C75.9477 20.78 75.5877 22.49 75.5877 23.885C75.5877 27.17 77.4777 28.385 82.8327 28.385C90.4377 28.385 92.2827 25.91 94.1277 18.575ZM96.8523 32.5481C93.3388 35.5004 88.3751 36.675 81.0327 36.675C75.6319 36.675 71.7492 36.0532 69.2041 34.4711C66.5321 32.8101 65.4977 30.2083 65.4977 26.81C65.4977 24.4332 66.0179 21.5912 66.8326 18.3324C68.3699 12.0936 70.2296 7.54309 73.7231 4.60243C77.2313 1.64946 82.1957 0.474976 89.5377 0.474976C94.9402 0.474976 98.8247 1.10829 101.371 2.70975C104.041 4.38918 105.073 7.01249 105.073 10.43C105.073 12.756 104.6 15.5484 103.783 18.8175C102.223 25.0576 100.351 29.6079 96.8523 32.5481ZM129.093 26.6497L129.096 26.6369C129.207 26.2306 129.241 25.8692 129.241 25.64C129.241 25.4596 129.211 25.395 129.206 25.3849C129.205 25.3837 129.205 25.3827 129.204 25.3818C129.203 25.3796 129.201 25.3779 129.199 25.3752C129.194 25.3704 129.177 25.3552 129.137 25.3339C128.928 25.2216 128.437 25.11 127.361 25.11H115.768L113.068 36H102.186L110.874 1.10498H132.266C135.103 1.10498 137.933 1.38071 140.078 2.49429C141.173 3.06232 142.108 3.8574 142.762 4.95208C143.415 6.04501 143.751 7.37216 143.751 8.94498C143.751 13.7901 141.533 17.8558 138.938 20.1466C139.87 21.0717 140.421 22.3283 140.421 23.93C140.421 24.6119 140.317 25.3687 140.122 26.1506C140.121 26.1512 140.121 26.1519 140.121 26.1525L137.684 36H126.807L129.093 26.6497ZM139.151 25.91C139.331 25.19 139.421 24.515 139.421 23.93C139.421 22.5604 138.952 21.5295 138.153 20.7778C137.902 20.5415 137.618 20.3329 137.306 20.15C137.59 19.959 137.874 19.7429 138.154 19.5033C140.581 17.428 142.751 13.5843 142.751 8.94498C142.751 3.22998 137.891 2.10498 132.266 2.10498H111.656L103.466 35H112.286L114.986 24.11H127.361C129.521 24.11 130.241 24.515 130.241 25.64C130.241 25.955 130.196 26.405 130.061 26.9L128.081 35H136.901L139.151 25.91ZM132.604 13.1443L132.609 13.1253C132.758 12.6056 132.796 12.1618 132.796 11.735C132.796 11.0519 132.581 10.8035 132.375 10.6658C132.086 10.4732 131.578 10.35 130.781 10.35H119.454L117.892 16.495H128.711C129.658 16.495 130.434 16.3222 131.049 15.8829C131.651 15.4519 132.234 14.6663 132.599 13.1636L132.604 13.1443ZM116.606 17.495L118.676 9.34998H130.781C132.491 9.34998 133.796 9.84498 133.796 11.735C133.796 12.23 133.751 12.77 133.571 13.4C132.761 16.73 130.826 17.495 128.711 17.495H116.606ZM149.429 36L155.819 10.215H144.157L146.463 1.10498H180.656L178.35 10.215H166.699L160.309 36H149.429ZM165.917 9.21498H177.572L179.372 2.10498H147.242L145.442 9.21498H157.097L150.707 35H159.527L165.917 9.21498ZM189.447 26.665H210.301C211.116 26.665 211.753 26.4238 212.189 25.9767C212.626 25.5294 212.991 24.7424 212.991 23.39C212.991 23.1805 212.959 23.0717 212.938 23.0227C212.922 22.9856 212.906 22.9675 212.876 22.9465C212.774 22.8756 212.486 22.77 211.786 22.77H201.121C198.219 22.77 195.98 22.3061 194.457 21.1637C192.865 19.9694 192.246 18.188 192.246 16.055C192.246 14.7245 192.491 13.2406 192.906 11.5824L192.906 11.5808C193.735 8.28855 194.927 5.62022 197.035 3.79564C199.161 1.95599 202.064 1.10498 206.026 1.10498H228.322L225.977 10.485H205.981C205.091 10.485 204.621 10.6637 204.321 10.9174C204.007 11.1829 203.716 11.6692 203.49 12.6379L203.485 12.6556L203.481 12.6731C203.369 13.0839 203.336 13.4005 203.336 13.67C203.336 14.034 203.424 14.0912 203.445 14.1049C203.447 14.1056 203.447 14.1062 203.448 14.1067C203.544 14.1756 203.828 14.29 204.541 14.29H215.161C218.06 14.29 220.294 14.7417 221.815 15.8556C223.411 17.0242 224.036 18.7735 224.036 20.87C224.036 22.1567 223.79 23.6413 223.376 25.2975L223.376 25.2991C222.524 28.6825 221.299 31.4028 219.184 33.2596C217.049 35.1341 214.157 36 210.256 36H187.156L189.447 26.665ZM190.231 27.665H210.301C212.326 27.665 213.991 26.45 213.991 23.39C213.991 22.175 213.271 21.77 211.786 21.77H201.121C195.451 21.77 193.246 19.925 193.246 16.055C193.246 14.84 193.471 13.445 193.876 11.825C195.496 5.38998 198.376 2.10498 206.026 2.10498H227.041L225.196 9.48498H205.981C203.956 9.48498 203.011 10.295 202.516 12.41C202.381 12.905 202.336 13.31 202.336 13.67C202.336 14.84 203.011 15.29 204.541 15.29H215.161C220.831 15.29 223.036 17.09 223.036 20.87C223.036 22.04 222.811 23.435 222.406 25.055C220.741 31.67 217.771 35 210.256 35H188.431L190.231 27.665ZM251.706 1.10498H262.593L263.824 20.2427L274.107 1.10498H285.138L265.662 36H254.809L253.767 15.3951L242.262 36H231.511L229.315 1.10498H240.482L241.115 20.2318L251.706 1.10498ZM240.235 23.885L239.515 2.10498H230.38L232.45 35H241.675L254.59 11.87L255.76 35H265.075L283.435 2.10498H274.705L263.05 23.795L261.655 2.10498H252.295L240.235 23.885ZM286.216 1.10498H297.097L288.409 36H277.528L286.216 1.10498ZM278.808 35H287.628L295.818 2.10498H286.998L278.808 35ZM333.018 13.854L333.015 13.8665C331.767 18.8814 329.348 21.9302 326.287 23.6889C323.271 25.4222 319.753 25.83 316.429 25.83H305.872L303.352 36H292.47L301.158 1.10498H322.099C324.934 1.10498 327.776 1.45193 329.935 2.70205C331.034 3.33803 331.96 4.21062 332.606 5.38077C333.25 6.54737 333.584 7.95514 333.584 9.61998C333.584 10.8908 333.389 12.2761 333.018 13.854ZM305.089 24.83H316.429C322.954 24.83 329.659 23.21 332.044 13.625C332.404 12.095 332.584 10.79 332.584 9.61998C332.584 3.49998 327.679 2.10498 322.099 2.10498H301.939L293.749 35H302.569L305.089 24.83ZM322.391 13.3749L322.393 13.3673C322.547 12.7899 322.584 12.3382 322.584 11.915C322.584 11.1366 322.349 10.8394 322.134 10.6851C321.851 10.4816 321.356 10.35 320.569 10.35H309.737L308.085 16.855H318.409C319.346 16.855 320.134 16.6749 320.768 16.2137C321.395 15.7583 322.001 14.9332 322.389 13.3824L322.391 13.3749ZM318.409 17.855C320.524 17.855 322.504 17.045 323.359 13.625C323.539 12.95 323.584 12.41 323.584 11.915C323.584 9.88998 322.279 9.34998 320.569 9.34998H308.959L306.799 17.855H318.409ZM367.57 14.38L365.499 22.725H344.034L343 26.89H364.643L362.395 36H329.867L338.555 1.10498H370.996L368.69 10.215H347.139L346.105 14.38H367.57ZM344.827 15.38H366.292L364.717 21.725H343.252L341.722 27.89H363.367L361.612 35H331.147L339.337 2.10498H369.712L367.912 9.21498H346.357L344.827 15.38ZM102.813 18.575C99.7077 30.995 95.5677 35.675 81.0327 35.675C70.2777 35.675 66.4977 33.155 66.4977 26.81C66.4977 24.56 66.9927 21.815 67.8027 18.575C70.8627 6.15498 75.0027 1.47498 89.5377 1.47498C100.293 1.47498 104.073 4.03998 104.073 10.43C104.073 12.635 103.623 15.335 102.813 18.575Z" fill="white" fill-opacity="0.1"/>
</svg>
