<svg width="28" height="27" viewBox="0 0 28 27" fill="none" xmlns="http://www.w3.org/2000/svg">
<path d="M27.9598 10.4326C27.8633 10.1356 27.6067 9.91914 27.2977 9.8743L18.6176 8.61294L14.7356 0.747432C14.5974 0.467433 14.3123 0.290192 14 0.290192C13.6878 0.290192 13.4026 0.467433 13.2644 0.747432L9.3823 8.61294L0.702341 9.8743C0.393413 9.91914 0.136656 10.1356 0.0401879 10.4325C-0.0563351 10.7296 0.0241645 11.0555 0.247781 11.2735L6.5285 17.3959L5.04604 26.0411C4.99321 26.3488 5.11976 26.6598 5.37236 26.8434C5.51526 26.9472 5.68452 27 5.85459 27C5.98519 27 6.11622 26.9689 6.2362 26.9058L14 22.824L21.7634 26.9057C22.0399 27.051 22.3747 27.0269 22.6273 26.8433C22.8799 26.6598 23.0065 26.3487 22.9538 26.0409L21.4708 17.3959L27.7522 11.2734C27.9758 11.0555 28.0564 10.7296 27.9598 10.4326Z" fill="#FFF131"/>
</svg>
