<svg width="360" height="185" viewBox="0 0 360 185" fill="none" xmlns="http://www.w3.org/2000/svg">
<path d="M32.885 43.07C36.02 43.07 37.54 43.925 37.54 46.49C37.54 52.95 34.025 55.515 29.75 55.515H-12.62L-16.42 71H29.655C45.52 71 51.79 63.97 55.305 50.005C56.16 46.585 56.635 43.64 56.635 41.17C56.635 33.19 51.98 29.39 40.01 29.39H17.59C14.36 29.39 12.935 28.44 12.935 25.97C12.935 25.21 13.03 24.355 13.315 23.31C14.36 18.845 16.355 17.135 20.63 17.135H61.195L65.09 1.55501H20.725C4.575 1.55501 -1.505 8.49001 -4.925 22.075C-5.78 25.495 -6.255 28.44 -6.255 31.005C-6.255 39.175 -1.6 43.07 10.37 43.07H32.885Z" fill="white"/>
<path d="M108.144 49.53C121.919 49.53 136.074 46.11 141.109 25.875C141.869 22.645 142.249 19.89 142.249 17.42C142.249 4.50001 131.894 1.55501 120.114 1.55501H77.5543L60.2643 71H78.8843L84.2043 49.53H108.144ZM122.774 25.875C120.969 33.095 116.789 34.805 112.324 34.805H87.8143L92.3743 16.85H116.884C120.494 16.85 123.249 17.99 123.249 22.265C123.249 23.31 123.154 24.45 122.774 25.875Z" fill="white"/>
<path d="M187.002 15.615C198.307 15.615 202.297 18.275 202.297 25.21C202.297 28.155 201.632 31.765 200.492 36.325C196.597 51.81 192.702 57.035 176.647 57.035C165.342 57.035 161.352 54.47 161.352 47.535C161.352 44.59 162.112 40.98 163.252 36.325C167.052 20.84 170.947 15.615 187.002 15.615ZM172.847 72.425C203.532 72.425 212.272 62.545 218.827 36.325C220.537 29.485 221.487 23.785 221.487 19.13C221.487 5.64001 213.507 0.225006 190.802 0.225006C160.117 0.225006 151.377 10.105 144.917 36.325C143.207 43.165 142.162 48.96 142.162 53.71C142.162 67.105 150.142 72.425 172.847 72.425Z" fill="white"/>
<path d="M270.651 48.01C275.211 48.01 276.731 48.865 276.731 51.24C276.731 51.905 276.636 52.855 276.351 53.9L272.171 71H290.791L295.541 51.81C295.921 50.29 296.111 48.865 296.111 47.63C296.111 43.83 294.401 41.265 291.646 39.65C297.441 35.755 303.141 26.92 303.141 15.995C303.141 3.93001 292.881 1.55501 281.006 1.55501H237.496L220.206 71H238.826L244.526 48.01H270.651ZM283.761 25.4C282.051 32.43 277.966 34.045 273.501 34.045H247.946L252.316 16.85H277.871C281.481 16.85 284.236 17.895 284.236 21.885C284.236 22.93 284.141 24.07 283.761 25.4Z" fill="white"/>
<path d="M319.936 71H338.556L352.046 16.565H376.651L380.451 1.55501H312.621L308.821 16.565H333.426L319.936 71Z" fill="white"/>
<path d="M32.885 157.07C36.02 157.07 37.54 157.925 37.54 160.49C37.54 166.95 34.025 169.515 29.75 169.515H-12.62L-16.42 185H29.655C45.52 185 51.79 177.97 55.305 164.005C56.16 160.585 56.635 157.64 56.635 155.17C56.635 147.19 51.98 143.39 40.01 143.39H17.59C14.36 143.39 12.935 142.44 12.935 139.97C12.935 139.21 13.03 138.355 13.315 137.31C14.36 132.845 16.355 131.135 20.63 131.135H61.195L65.09 115.555H20.725C4.575 115.555 -1.505 122.49 -4.925 136.075C-5.78 139.495 -6.255 142.44 -6.255 145.005C-6.255 153.175 -1.6 157.07 10.37 157.07H32.885Z" fill="white"/>
<path d="M118.404 115.555L92.9443 161.535L91.4243 115.555H72.1393L76.5093 185H95.9843L123.249 136.17L125.719 185H145.384L184.144 115.555H165.714L141.109 161.345L138.164 115.555H118.404Z" fill="white"/>
<path d="M191.666 115.555L174.376 185H192.996L210.286 115.555H191.666Z" fill="white"/>
<path d="M253.799 163.53C267.574 163.53 281.729 160.11 286.764 139.875C287.524 136.645 287.904 133.89 287.904 131.42C287.904 118.5 277.549 115.555 265.769 115.555H223.209L205.919 185H224.539L229.859 163.53H253.799ZM268.429 139.875C266.624 147.095 262.444 148.805 257.979 148.805H233.469L238.029 130.85H262.539C266.149 130.85 268.904 131.99 268.904 136.265C268.904 137.31 268.809 138.45 268.429 139.875Z" fill="white"/>
<path d="M359.064 143.58H313.749L316.979 130.565H362.484L366.284 115.555H302.159L284.869 185H349.184L352.889 169.99H307.194L310.424 156.975H355.739L359.064 143.58Z" fill="white"/>
</svg>
