<svg width="360" height="187" viewBox="0 0 360 187" fill="none" xmlns="http://www.w3.org/2000/svg">
<mask id="path-1-outside-1" maskUnits="userSpaceOnUse" x="-18.42" y="0" width="401" height="187" fill="black">
<rect fill="white" x="-18.42" width="401" height="187"/>
<path d="M32.885 43.845C36.02 43.845 37.54 44.7 37.54 47.265C37.54 53.725 34.025 56.29 29.75 56.29H-12.62L-16.42 71.775H29.655C45.52 71.775 51.79 64.745 55.305 50.78C56.16 47.36 56.635 44.415 56.635 41.945C56.635 33.965 51.98 30.165 40.01 30.165H17.59C14.36 30.165 12.935 29.215 12.935 26.745C12.935 25.985 13.03 25.13 13.315 24.085C14.36 19.62 16.355 17.91 20.63 17.91H61.195L65.09 2.33001H20.725C4.575 2.33001 -1.505 9.265 -4.925 22.85C-5.78 26.27 -6.255 29.215 -6.255 31.78C-6.255 39.95 -1.6 43.845 10.37 43.845H32.885Z"/>
<path d="M108.144 50.305C121.919 50.305 136.074 46.885 141.109 26.65C141.869 23.42 142.249 20.665 142.249 18.195C142.249 5.275 131.894 2.33001 120.114 2.33001H77.5543L60.2643 71.775H78.8843L84.2043 50.305H108.144ZM122.774 26.65C120.969 33.87 116.789 35.58 112.324 35.58H87.8143L92.3743 17.625H116.884C120.494 17.625 123.249 18.765 123.249 23.04C123.249 24.085 123.154 25.225 122.774 26.65Z"/>
<path d="M187.002 16.39C198.307 16.39 202.297 19.05 202.297 25.985C202.297 28.93 201.632 32.54 200.492 37.1C196.597 52.585 192.702 57.81 176.647 57.81C165.342 57.81 161.352 55.245 161.352 48.31C161.352 45.365 162.112 41.755 163.252 37.1C167.052 21.615 170.947 16.39 187.002 16.39ZM172.847 73.2C203.532 73.2 212.272 63.32 218.827 37.1C220.537 30.26 221.487 24.56 221.487 19.905C221.487 6.415 213.507 1 190.802 1C160.117 1 151.377 10.88 144.917 37.1C143.207 43.94 142.162 49.735 142.162 54.485C142.162 67.88 150.142 73.2 172.847 73.2Z"/>
<path d="M270.651 48.785C275.211 48.785 276.731 49.64 276.731 52.015C276.731 52.68 276.636 53.63 276.351 54.675L272.171 71.775H290.791L295.541 52.585C295.921 51.065 296.111 49.64 296.111 48.405C296.111 44.605 294.401 42.04 291.646 40.425C297.441 36.53 303.141 27.695 303.141 16.77C303.141 4.705 292.881 2.33001 281.006 2.33001H237.496L220.206 71.775H238.826L244.526 48.785H270.651ZM283.761 26.175C282.051 33.205 277.966 34.82 273.501 34.82H247.946L252.316 17.625H277.871C281.481 17.625 284.236 18.67 284.236 22.66C284.236 23.705 284.141 24.845 283.761 26.175Z"/>
<path d="M319.936 71.775H338.556L352.046 17.34H376.651L380.451 2.33001H312.621L308.821 17.34H333.426L319.936 71.775Z"/>
<path d="M32.885 157.845C36.02 157.845 37.54 158.7 37.54 161.265C37.54 167.725 34.025 170.29 29.75 170.29H-12.62L-16.42 185.775H29.655C45.52 185.775 51.79 178.745 55.305 164.78C56.16 161.36 56.635 158.415 56.635 155.945C56.635 147.965 51.98 144.165 40.01 144.165H17.59C14.36 144.165 12.935 143.215 12.935 140.745C12.935 139.985 13.03 139.13 13.315 138.085C14.36 133.62 16.355 131.91 20.63 131.91H61.195L65.09 116.33H20.725C4.575 116.33 -1.505 123.265 -4.925 136.85C-5.78 140.27 -6.255 143.215 -6.255 145.78C-6.255 153.95 -1.6 157.845 10.37 157.845H32.885Z"/>
<path d="M118.404 116.33L92.9443 162.31L91.4243 116.33H72.1393L76.5093 185.775H95.9843L123.249 136.945L125.719 185.775H145.384L184.144 116.33H165.714L141.109 162.12L138.164 116.33H118.404Z"/>
<path d="M191.666 116.33L174.376 185.775H192.996L210.286 116.33H191.666Z"/>
<path d="M253.799 164.305C267.574 164.305 281.729 160.885 286.764 140.65C287.524 137.42 287.904 134.665 287.904 132.195C287.904 119.275 277.549 116.33 265.769 116.33H223.209L205.919 185.775H224.539L229.859 164.305H253.799ZM268.429 140.65C266.624 147.87 262.444 149.58 257.979 149.58H233.469L238.029 131.625H262.539C266.149 131.625 268.904 132.765 268.904 137.04C268.904 138.085 268.809 139.225 268.429 140.65Z"/>
<path d="M359.064 144.355H313.749L316.979 131.34H362.484L366.284 116.33H302.159L284.869 185.775H349.184L352.889 170.765H307.194L310.424 157.75H355.739L359.064 144.355Z"/>
</mask>
<path d="M32.885 43.845C36.02 43.845 37.54 44.7 37.54 47.265C37.54 53.725 34.025 56.29 29.75 56.29H-12.62L-16.42 71.775H29.655C45.52 71.775 51.79 64.745 55.305 50.78C56.16 47.36 56.635 44.415 56.635 41.945C56.635 33.965 51.98 30.165 40.01 30.165H17.59C14.36 30.165 12.935 29.215 12.935 26.745C12.935 25.985 13.03 25.13 13.315 24.085C14.36 19.62 16.355 17.91 20.63 17.91H61.195L65.09 2.33001H20.725C4.575 2.33001 -1.505 9.265 -4.925 22.85C-5.78 26.27 -6.255 29.215 -6.255 31.78C-6.255 39.95 -1.6 43.845 10.37 43.845H32.885Z" stroke="#FFF131" stroke-opacity="0.24" stroke-width="2" mask="url(#path-1-outside-1)"/>
<path d="M108.144 50.305C121.919 50.305 136.074 46.885 141.109 26.65C141.869 23.42 142.249 20.665 142.249 18.195C142.249 5.275 131.894 2.33001 120.114 2.33001H77.5543L60.2643 71.775H78.8843L84.2043 50.305H108.144ZM122.774 26.65C120.969 33.87 116.789 35.58 112.324 35.58H87.8143L92.3743 17.625H116.884C120.494 17.625 123.249 18.765 123.249 23.04C123.249 24.085 123.154 25.225 122.774 26.65Z" stroke="#FFF131" stroke-opacity="0.24" stroke-width="2" mask="url(#path-1-outside-1)"/>
<path d="M187.002 16.39C198.307 16.39 202.297 19.05 202.297 25.985C202.297 28.93 201.632 32.54 200.492 37.1C196.597 52.585 192.702 57.81 176.647 57.81C165.342 57.81 161.352 55.245 161.352 48.31C161.352 45.365 162.112 41.755 163.252 37.1C167.052 21.615 170.947 16.39 187.002 16.39ZM172.847 73.2C203.532 73.2 212.272 63.32 218.827 37.1C220.537 30.26 221.487 24.56 221.487 19.905C221.487 6.415 213.507 1 190.802 1C160.117 1 151.377 10.88 144.917 37.1C143.207 43.94 142.162 49.735 142.162 54.485C142.162 67.88 150.142 73.2 172.847 73.2Z" stroke="#FFF131" stroke-opacity="0.24" stroke-width="2" mask="url(#path-1-outside-1)"/>
<path d="M270.651 48.785C275.211 48.785 276.731 49.64 276.731 52.015C276.731 52.68 276.636 53.63 276.351 54.675L272.171 71.775H290.791L295.541 52.585C295.921 51.065 296.111 49.64 296.111 48.405C296.111 44.605 294.401 42.04 291.646 40.425C297.441 36.53 303.141 27.695 303.141 16.77C303.141 4.705 292.881 2.33001 281.006 2.33001H237.496L220.206 71.775H238.826L244.526 48.785H270.651ZM283.761 26.175C282.051 33.205 277.966 34.82 273.501 34.82H247.946L252.316 17.625H277.871C281.481 17.625 284.236 18.67 284.236 22.66C284.236 23.705 284.141 24.845 283.761 26.175Z" stroke="#FFF131" stroke-opacity="0.24" stroke-width="2" mask="url(#path-1-outside-1)"/>
<path d="M319.936 71.775H338.556L352.046 17.34H376.651L380.451 2.33001H312.621L308.821 17.34H333.426L319.936 71.775Z" stroke="#FFF131" stroke-opacity="0.24" stroke-width="2" mask="url(#path-1-outside-1)"/>
<path d="M32.885 157.845C36.02 157.845 37.54 158.7 37.54 161.265C37.54 167.725 34.025 170.29 29.75 170.29H-12.62L-16.42 185.775H29.655C45.52 185.775 51.79 178.745 55.305 164.78C56.16 161.36 56.635 158.415 56.635 155.945C56.635 147.965 51.98 144.165 40.01 144.165H17.59C14.36 144.165 12.935 143.215 12.935 140.745C12.935 139.985 13.03 139.13 13.315 138.085C14.36 133.62 16.355 131.91 20.63 131.91H61.195L65.09 116.33H20.725C4.575 116.33 -1.505 123.265 -4.925 136.85C-5.78 140.27 -6.255 143.215 -6.255 145.78C-6.255 153.95 -1.6 157.845 10.37 157.845H32.885Z" stroke="#FFF131" stroke-opacity="0.24" stroke-width="2" mask="url(#path-1-outside-1)"/>
<path d="M118.404 116.33L92.9443 162.31L91.4243 116.33H72.1393L76.5093 185.775H95.9843L123.249 136.945L125.719 185.775H145.384L184.144 116.33H165.714L141.109 162.12L138.164 116.33H118.404Z" stroke="#FFF131" stroke-opacity="0.24" stroke-width="2" mask="url(#path-1-outside-1)"/>
<path d="M191.666 116.33L174.376 185.775H192.996L210.286 116.33H191.666Z" stroke="#FFF131" stroke-opacity="0.24" stroke-width="2" mask="url(#path-1-outside-1)"/>
<path d="M253.799 164.305C267.574 164.305 281.729 160.885 286.764 140.65C287.524 137.42 287.904 134.665 287.904 132.195C287.904 119.275 277.549 116.33 265.769 116.33H223.209L205.919 185.775H224.539L229.859 164.305H253.799ZM268.429 140.65C266.624 147.87 262.444 149.58 257.979 149.58H233.469L238.029 131.625H262.539C266.149 131.625 268.904 132.765 268.904 137.04C268.904 138.085 268.809 139.225 268.429 140.65Z" stroke="#FFF131" stroke-opacity="0.24" stroke-width="2" mask="url(#path-1-outside-1)"/>
<path d="M359.064 144.355H313.749L316.979 131.34H362.484L366.284 116.33H302.159L284.869 185.775H349.184L352.889 170.765H307.194L310.424 157.75H355.739L359.064 144.355Z" stroke="#FFF131" stroke-opacity="0.24" stroke-width="2" mask="url(#path-1-outside-1)"/>
</svg>
