<svg width="64" height="64" viewBox="0 0 64 64" fill="none" xmlns="http://www.w3.org/2000/svg">
<g filter="url(#filter0_d)">
<circle cx="30.5" cy="30.5" r="30.5" fill="#FFF131"/>
<mask id="mask0" style="mask-type:alpha" maskUnits="userSpaceOnUse" x="0" y="0" width="61" height="61">
<circle cx="30.5" cy="30.5" r="30.5" fill="#FFF131"/>
</mask>
<g mask="url(#mask0)">
<path d="M33.7786 22H28.6625L19.6741 34.4186L17.0457 22H12L16.06 39H21.0353L33.7786 22Z" fill="#004B1F"/>
<path d="M42.0442 32.1628C42.8187 32.1628 43.1942 32.3721 43.1942 33C43.1942 34.5814 42.3259 35.2093 41.2698 35.2093H30.8029L29.8642 39H41.2463C45.1655 39 46.7144 37.2791 47.5828 33.8605C47.794 33.0233 47.9113 32.3023 47.9113 31.6977C47.9113 29.7442 46.7614 28.814 43.8044 28.814H38.2658C37.4679 28.814 37.1159 28.5814 37.1159 27.9767C37.1159 27.7907 37.1394 27.5814 37.2098 27.3256C37.4679 26.2326 37.9607 25.814 39.0168 25.814H49.0378L50 22H39.0403C35.0507 22 33.5487 23.6977 32.7038 27.0233C32.4926 27.8605 32.3753 28.5814 32.3753 29.2093C32.3753 31.2093 33.5252 32.1628 36.4822 32.1628H42.0442Z" fill="#004B1F"/>
</g>
</g>
<defs>
<filter id="filter0_d" x="0" y="0" width="64" height="64" filterUnits="userSpaceOnUse" color-interpolation-filters="sRGB">
<feFlood flood-opacity="0" result="BackgroundImageFix"/>
<feColorMatrix in="SourceAlpha" type="matrix" values="0 0 0 0 0 0 0 0 0 0 0 0 0 0 0 0 0 0 127 0" result="hardAlpha"/>
<feOffset dx="3" dy="3"/>
<feComposite in2="hardAlpha" operator="out"/>
<feColorMatrix type="matrix" values="0 0 0 0 0 0 0 0 0 0 0 0 0 0 0 0 0 0 0.25 0"/>
<feBlend mode="normal" in2="BackgroundImageFix" result="effect1_dropShadow"/>
<feBlend mode="normal" in="SourceGraphic" in2="effect1_dropShadow" result="shape"/>
</filter>
</defs>
</svg>
